<?xml version="1.0" standalone="no"?>
<!DOCTYPE svg PUBLIC "-//W3C//DTD SVG 20010904//EN"
 "http://www.w3.org/TR/2001/REC-SVG-20010904/DTD/svg10.dtd">
<svg version="1.0" xmlns="http://www.w3.org/2000/svg"
 width="600.000000pt" height="600.000000pt" viewBox="0 0 600.000000 600.000000"
 preserveAspectRatio="xMidYMid meet">

<g transform="translate(0.000000,600.000000) scale(0.100000,-0.100000)"
fill="#000000" stroke="none">
<path d="M2990 5143 c-56 -10 -180 -47 -260 -80 -179 -72 -300 -154 -442 -299
-189 -193 -261 -324 -340 -614 -20 -75 -23 -108 -23 -275 1 -185 2 -193 33
-303 60 -206 119 -325 232 -466 112 -141 237 -250 379 -330 98 -56 282 -126
384 -146 118 -23 367 -25 482 -3 108 20 265 73 364 123 l81 40 0 -51 0 -50
138 -142 c818 -840 824 -846 881 -874 77 -38 182 -44 262 -14 75 29 141 88
176 159 23 48 28 70 28 137 0 135 -21 167 -302 456 -131 135 -328 339 -437
454 -110 116 -231 239 -268 275 -37 36 -68 69 -68 73 0 5 11 23 24 40 33 45
75 130 102 211 86 251 87 560 3 816 -72 218 -267 484 -462 628 -137 102 -380
206 -537 231 -62 10 -377 13 -430 4z m485 -257 c280 -83 499 -254 640 -502 39
-68 91 -206 109 -286 17 -78 24 -219 16 -318 -39 -439 -337 -791 -769 -908
-86 -23 -114 -26 -266 -25 -151 0 -181 3 -267 26 -366 97 -645 371 -744 728
-35 128 -44 334 -20 462 69 365 319 663 666 793 135 51 221 64 395 60 126 -3
165 -8 240 -30z"/>
<path d="M3098 4561 c-30 -19 -52 -44 -67 -73 -21 -44 -21 -49 -21 -761 l0
-716 23 -13 c31 -17 313 -17 345 0 l22 13 -2 733 -3 733 -29 37 c-60 79 -183
101 -268 47z"/>
<path d="M2462 4161 c-26 -4 -54 -19 -73 -37 -53 -50 -60 -81 -58 -256 2 -292
55 -433 228 -612 67 -69 149 -136 165 -136 3 0 6 206 6 458 0 455 0 458 -22
502 -13 25 -36 52 -53 62 -35 20 -133 30 -193 19z"/>
<path d="M3742 4139 c-68 -44 -67 -33 -70 -551 -2 -349 0 -468 9 -468 22 0
109 72 181 150 162 175 217 325 218 598 0 151 -11 207 -47 246 -36 39 -62 46
-166 46 -76 0 -98 -4 -125 -21z"/>
<path d="M1775 4781 c-50 -23 -91 -70 -105 -121 -7 -26 -9 -369 -8 -1047 3
-1134 -3 -1046 80 -1101 36 -24 51 -27 118 -27 67 0 83 4 118 27 70 47 74 66
70 428 l-3 315 -41 90 c-49 104 -98 254 -113 339 -16 86 -13 300 4 399 19 109
56 228 107 341 79 174 58 305 -56 357 -52 24 -120 24 -171 0z"/>
<path d="M1113 4160 c-54 -11 -90 -35 -111 -74 -15 -28 -17 -95 -20 -739 -2
-467 1 -721 8 -747 14 -54 66 -96 134 -110 99 -20 180 6 230 73 21 28 21 36
24 740 2 480 0 724 -8 748 -11 41 -80 109 -109 109 -10 0 -38 2 -62 4 -24 3
-63 1 -86 -4z"/>
<path d="M2336 2849 c-10 -51 -7 -201 5 -244 23 -83 111 -133 216 -122 98 10
156 58 169 139 l6 33 -109 53 c-59 29 -145 79 -191 112 -46 33 -85 60 -86 60
-2 0 -6 -14 -10 -31z"/>
<path d="M3758 2689 c-73 -37 -78 -41 -78 -72 1 -62 45 -108 124 -128 50 -12
121 -8 170 11 l29 11 -77 78 c-62 64 -76 85 -76 110 0 17 -3 31 -7 31 -5 -1
-43 -19 -85 -41z"/>
<path d="M3025 2556 c38 -57 164 -91 251 -67 44 12 88 42 104 70 8 17 -2 18
-180 18 l-189 1 14 -22z"/>
<path d="M1705 2063 c-95 -34 -155 -97 -189 -196 -19 -56 -21 -163 -4 -218 16
-56 69 -113 130 -140 89 -39 279 -28 321 19 11 12 23 61 34 134 22 149 23 148
-101 148 -97 0 -116 -7 -116 -45 0 -33 20 -45 73 -45 l49 0 -7 -52 c-4 -29
-11 -57 -16 -62 -5 -5 -36 -12 -68 -14 -47 -3 -69 0 -105 17 -55 27 -76 68
-76 148 0 72 36 152 83 185 42 30 141 37 202 13 59 -22 87 -17 99 18 13 36 1
56 -50 82 -56 27 -192 32 -259 8z"/>
<path d="M2198 2070 c-22 -13 -32 -51 -59 -230 -32 -214 -16 -279 86 -330 41
-20 64 -25 130 -24 130 0 214 56 250 164 15 46 65 342 65 385 0 43 -72 62
-103 27 -10 -11 -25 -76 -42 -187 -32 -200 -48 -245 -98 -268 -57 -28 -113
-22 -149 13 -29 30 -30 33 -26 103 3 40 13 127 24 195 14 90 16 127 8 140 -13
20 -61 26 -86 12z"/>
<path d="M2824 2072 c-6 -4 -16 -16 -21 -27 -17 -31 -87 -498 -80 -527 4 -14
16 -28 28 -31 27 -7 76 10 83 30 6 15 86 502 86 522 0 31 -66 53 -96 33z"/>
<path d="M3122 2064 c-124 -46 -170 -188 -88 -270 31 -31 49 -38 189 -75 54
-13 83 -45 72 -79 -16 -52 -128 -65 -241 -28 -81 26 -99 19 -99 -38 0 -38 1
-39 60 -63 46 -18 81 -24 145 -25 105 -1 164 19 214 74 41 46 51 75 43 132 -9
69 -70 115 -181 138 -80 16 -105 29 -112 56 -10 38 0 58 36 77 41 21 122 18
184 -8 49 -21 84 -13 92 20 8 31 -7 50 -60 77 -55 28 -193 34 -254 12z"/>
<path d="M3576 2048 c-12 -21 -86 -453 -86 -505 0 -48 19 -53 199 -53 150 0
170 2 184 18 20 22 22 53 5 70 -8 8 -53 12 -136 12 l-125 0 7 61 c11 94 3 89
133 89 130 0 153 8 153 50 0 42 -23 50 -148 50 l-109 0 11 68 11 67 138 5
c142 5 156 10 157 51 0 35 -20 39 -202 39 -173 0 -178 -1 -192 -22z"/>
<path d="M4087 2048 c-14 -22 -87 -452 -87 -510 0 -40 37 -62 78 -47 35 12 41
28 62 157 l12 72 38 0 c73 0 85 -10 125 -114 41 -105 52 -119 97 -119 36 0 61
27 52 57 -21 69 -49 130 -68 153 l-23 26 51 26 c68 34 99 92 93 169 -4 56 -24
91 -71 126 -24 19 -44 21 -186 24 -157 3 -159 3 -173 -20z m255 -78 c54 -15
72 -58 47 -113 -16 -36 -50 -47 -139 -47 -92 0 -88 -5 -69 107 l11 63 57 0
c31 0 73 -5 93 -10z"/>
</g>
</svg>
